<?xml version="1.0" encoding="UTF-8"?>
<svg version="1.1" xmlns="http://www.w3.org/2000/svg" width="56" height="51">
<path d="M0 0 C18.48 0 36.96 0 56 0 C56 16.83 56 33.66 56 51 C37.52 51 19.04 51 0 51 C0 34.17 0 17.34 0 0 Z " fill="#171413" transform="translate(0,0)"/>
<path d="M0 0 C0.99 0 1.98 0 3 0 C3 1.32 3 2.64 3 4 C7.32448133 4.73832608 11.65535464 5.39174965 16 6 C16.144375 7.03125 16.28875 8.0625 16.4375 9.125 C16.91660457 12.42549813 17.43875083 15.71268341 18 19 C19.32 19 20.64 19 22 19 C22 19.99 22 20.98 22 22 C20.68 22 19.36 22 18 22 C17.26167392 26.32448133 16.60825035 30.65535464 16 35 C14.96875 35.144375 13.9375 35.28875 12.875 35.4375 C9.57450187 35.91660457 6.28731659 36.43875083 3 37 C3 38.32 3 39.64 3 41 C2.01 41 1.02 41 0 41 C0 39.68 0 38.36 0 37 C-4.32448133 36.26167392 -8.65535464 35.60825035 -13 35 C-13.144375 33.96875 -13.28875 32.9375 -13.4375 31.875 C-13.91660457 28.57450187 -14.43875083 25.28731659 -15 22 C-16.32 22 -17.64 22 -19 22 C-19 21.01 -19 20.02 -19 19 C-17.68 19 -16.36 19 -15 19 C-14.26167392 14.67551867 -13.60825035 10.34464536 -13 6 C-11.96875 5.855625 -10.9375 5.71125 -9.875 5.5625 C-6.57450187 5.08339543 -3.28731659 4.56124917 0 4 C0 2.68 0 1.36 0 0 Z " fill="#1DB251" transform="translate(26,5)"/>
<path d="M0 0 C2.62187494 1.04874998 3.79371361 1.64931313 5.25 4.125 C5.4975 4.74375 5.745 5.3625 6 6 C3.69 6 1.38 6 -1 6 C-0.67 4.02 -0.34 2.04 0 0 Z " fill="#182E1D" transform="translate(16,18)"/>
<path d="M0 0 C0.33 1.98 0.66 3.96 1 6 C-0.98 6 -2.96 6 -5 6 C-5 3 -5 3 -3.625 1.3125 C-2 0 -2 0 0 0 Z " fill="#172A1B" transform="translate(39,18)"/>
<path d="M0 0 C1.875 0.25 1.875 0.25 4 1 C5.25 3.0625 5.25 3.0625 6 5 C4.02 5.33 2.04 5.66 0 6 C0 4.02 0 2.04 0 0 Z " fill="#17291B" transform="translate(29,32)"/>
<path d="M0 0 C0.99 0 1.98 0 3 0 C3 1.98 3 3.96 3 6 C0.03 5.505 0.03 5.505 -3 5 C-1.125 1.125 -1.125 1.125 0 0 Z " fill="#17291B" transform="translate(23,32)"/>
<path d="M0 0 C1.98 0 3.96 0 6 0 C5.67 1.98 5.34 3.96 5 6 C3.0625 5.25 3.0625 5.25 1 4 C0.25 1.875 0.25 1.875 0 0 Z " fill="#17291A" transform="translate(34,27)"/>
<path d="M0 0 C1.98 0 3.96 0 6 0 C5.75 1.875 5.75 1.875 5 4 C2.9375 5.25 2.9375 5.25 1 6 C0.67 4.02 0.34 2.04 0 0 Z " fill="#17291A" transform="translate(15,27)"/>
<path d="M0 0 C2.97 0.495 2.97 0.495 6 1 C5.25 2.9375 5.25 2.9375 4 5 C1.875 5.75 1.875 5.75 0 6 C0 4.02 0 2.04 0 0 Z " fill="#172A1B" transform="translate(29,13)"/>
<path d="M0 0 C0 1.98 0 3.96 0 6 C-1.875 5.75 -1.875 5.75 -4 5 C-5.25 2.9375 -5.25 2.9375 -6 1 C-4 0 -4 0 0 0 Z " fill="#17291B" transform="translate(26,13)"/>
<path d="M0 0 C1.98 0.495 1.98 0.495 4 1 C3.67 2.32 3.34 3.64 3 5 C1.68 4.67 0.36 4.34 -1 4 C-0.67 2.68 -0.34 1.36 0 0 Z " fill="#171212" transform="translate(26,23)"/>
</svg>
